<svg version="1.1" id="Layer_1" xmlns="http://www.w3.org/2000/svg" xmlns:xlink="http://www.w3.org/1999/xlink" x="0px" y="0px"
	 width="100%" viewBox="0 0 904 703" enable-background="new 0 0 904 703" xml:space="preserve">
<path fill="#000000" opacity="1.000000" stroke="none" 
	d="
M905.000000,245.000000 
	C905.000000,398.333344 905.000000,551.166687 905.000000,704.000000 
	C603.666687,704.000000 302.333344,704.000000 1.000000,704.000000 
	C1.000000,469.666656 1.000000,235.333328 1.000000,1.000000 
	C302.333344,1.000000 603.666687,1.000000 905.000000,1.000000 
	C905.000000,82.166664 905.000000,163.333328 905.000000,245.000000 
M466.434174,576.508789 
	C482.798981,550.189575 499.209991,523.898743 515.434509,497.493347 
	C516.640442,495.530731 516.947632,492.742310 516.929016,490.343536 
	C516.758606,468.353912 516.354126,446.366211 516.151306,424.376709 
	C515.725586,378.223114 515.433228,332.068176 514.921387,285.915649 
	C514.870117,281.297852 516.442749,279.899139 520.936279,279.877350 
	C544.092651,279.765228 567.247314,279.333405 590.403625,279.133301 
	C609.901489,278.964813 629.401550,278.840393 648.898682,278.976349 
	C653.279480,279.006897 655.817871,277.535583 658.118286,273.801697 
	C700.249695,205.415665 742.517212,137.113480 784.734985,68.780624 
	C785.815979,67.030937 786.662048,65.136078 788.039246,62.502949 
	C784.627686,62.342709 782.198792,62.129253 779.769958,62.128857 
	C677.772278,62.112175 575.774536,62.114391 473.776855,62.115852 
	C472.277008,62.115871 470.775482,62.185425 469.277618,62.135948 
	C466.290802,62.037296 465.037781,63.526310 465.130768,66.415588 
	C465.184326,68.080109 465.115631,69.748306 465.115631,71.414848 
	C465.114441,237.244446 465.113861,403.074036 465.120911,568.903625 
	C465.121002,571.569092 465.216583,574.234558 465.372131,577.093933 
	C465.372131,577.093933 465.675415,577.152527 465.675415,577.152527 
	C465.675415,577.152527 465.927368,576.951599 466.434174,576.508789 
M386.523895,376.496185 
	C385.744659,375.417114 384.914490,374.370941 384.193573,373.254211 
	C356.014374,329.603607 327.845795,285.946198 299.674469,242.290512 
	C261.841644,183.662933 223.996338,125.043381 186.210068,66.385803 
	C184.446671,63.648411 182.548752,62.037334 179.038849,62.062702 
	C157.722809,62.216778 136.405487,62.191090 114.756683,62.486809 
	C114.826653,63.006851 114.896622,63.526894 115.251648,64.666603 
	C149.833450,118.097931 184.401932,171.537872 218.999756,224.958817 
	C293.993073,340.752625 369.000854,456.537079 444.009186,572.321167 
	C444.945465,573.766418 445.967194,575.156433 446.949036,576.572205 
	C448.114594,574.242432 448.126617,572.307678 448.112854,570.373047 
	C447.781860,523.893005 447.438416,477.413055 447.117432,430.932953 
	C446.774658,381.287933 446.446106,331.642792 446.123199,281.997650 
	C445.779755,229.186539 445.430206,176.375443 445.125549,123.564102 
	C445.017883,104.902229 445.025055,86.239647 445.005127,67.577370 
	C445.002106,64.758377 445.018982,62.126038 441.044464,62.136021 
	C424.381683,62.177883 407.717682,62.075970 391.058136,62.311943 
	C389.794586,62.329842 388.049255,64.370644 387.455414,65.844788 
	C386.817413,67.428680 387.256348,69.453690 387.256287,71.286224 
	C387.253296,166.266251 387.245056,261.246277 387.271423,356.226318 
	C387.273315,363.054108 387.530304,369.881836 387.352142,376.798126 
	C387.352142,376.798126 387.043549,376.911438 386.523895,376.496185 
M163.500000,4.998011 
	C111.157104,4.998011 58.814209,4.998011 5.568868,4.998011 
	C71.732956,105.168777 137.220901,204.315887 203.061874,303.997467 
	C209.267044,294.712830 214.797653,286.198853 220.609177,277.881134 
	C222.456421,275.237305 222.184586,273.409821 220.479599,270.839294 
	C195.703964,233.486038 171.037476,196.060410 146.343597,158.652939 
	C121.012199,120.279701 95.676628,81.909218 70.358643,43.527130 
	C69.483627,42.200619 68.778114,40.762299 67.517273,38.534431 
	C325.178833,37.711971 581.953796,36.892338 839.770264,36.069386 
	C712.515137,236.665527 585.825134,436.370789 458.828461,636.559387 
	C457.411102,634.445312 456.382416,632.976807 455.420380,631.465820 
	C445.673187,616.156860 435.711731,600.976562 426.348419,585.436035 
	C423.863892,581.312378 421.008667,580.705627 417.003143,581.006042 
	C411.571960,581.413391 406.129730,581.674194 400.692261,581.997681 
	C395.037170,582.334167 389.382080,582.670532 383.175781,583.039612 
	C409.031952,621.539185 434.431519,659.358887 460.271851,697.834839 
	C606.910950,466.766144 753.144287,236.336716 899.954712,4.998011 
	C653.994080,4.998011 409.247040,4.998011 163.500000,4.998011 
z"/>
<path fill="#E2241F" opacity="1.000000" stroke="none" 
	d="
M164.000000,4.998011 
	C409.247040,4.998011 653.994080,4.998011 899.954712,4.998011 
	C753.144287,236.336716 606.910950,466.766144 460.271851,697.834839 
	C434.431519,659.358887 409.031952,621.539185 383.175781,583.039612 
	C389.382080,582.670532 395.037170,582.334167 400.692261,581.997681 
	C406.129730,581.674194 411.571960,581.413391 417.003143,581.006042 
	C421.008667,580.705627 423.863892,581.312378 426.348419,585.436035 
	C435.711731,600.976562 445.673187,616.156860 455.420380,631.465820 
	C456.382416,632.976807 457.411102,634.445312 458.828461,636.559387 
	C585.825134,436.370789 712.515137,236.665527 839.770264,36.069386 
	C581.953796,36.892338 325.178833,37.711971 67.517273,38.534431 
	C68.778114,40.762299 69.483627,42.200619 70.358643,43.527130 
	C95.676628,81.909218 121.012199,120.279701 146.343597,158.652939 
	C171.037476,196.060410 195.703964,233.486038 220.479599,270.839294 
	C222.184586,273.409821 222.456421,275.237305 220.609177,277.881134 
	C214.797653,286.198853 209.267044,294.712830 203.061874,303.997467 
	C137.220901,204.315887 71.732956,105.168777 5.568868,4.998011 
	C58.814209,4.998011 111.157104,4.998011 164.000000,4.998011 
z"/>
<path fill="#333333" opacity="1.000000" stroke="none" 
	d="
M115.088600,62.225430 
	C136.405487,62.191090 157.722809,62.216778 179.038849,62.062702 
	C182.548752,62.037334 184.446671,63.648411 186.210068,66.385803 
	C223.996338,125.043381 261.841644,183.662933 299.674469,242.290512 
	C327.845795,285.946198 356.014374,329.603607 384.193573,373.254211 
	C384.914490,374.370941 385.744659,375.417114 386.873474,376.764282 
	C387.470428,377.070801 387.618958,376.963196 387.668701,376.709595 
	C387.530304,369.881836 387.273315,363.054108 387.271423,356.226318 
	C387.245056,261.246277 387.253296,166.266251 387.256287,71.286224 
	C387.256348,69.453690 386.817413,67.428680 387.455414,65.844788 
	C388.049255,64.370644 389.794586,62.329842 391.058136,62.311943 
	C407.717682,62.075970 424.381683,62.177883 441.044464,62.136021 
	C445.018982,62.126038 445.002106,64.758377 445.005127,67.577370 
	C445.025055,86.239647 445.017883,104.902229 445.125549,123.564102 
	C445.430206,176.375443 445.779755,229.186539 446.123199,281.997650 
	C446.446106,331.642792 446.774658,381.287933 447.117432,430.932953 
	C447.438416,477.413055 447.781860,523.893005 448.112854,570.373047 
	C448.126617,572.307678 448.114594,574.242432 446.949036,576.572205 
	C445.967194,575.156433 444.945465,573.766418 444.009186,572.321167 
	C369.000854,456.537079 293.993073,340.752625 218.999756,224.958817 
	C184.401932,171.537872 149.833450,118.097931 115.132416,64.052643 
	C115.038322,63.034264 115.063461,62.629845 115.088600,62.225430 
z"/>
<path fill="#333333" opacity="1.000000" stroke="none" 
	d="
M465.267578,576.900024 
	C465.216583,574.234558 465.121002,571.569092 465.120911,568.903625 
	C465.113861,403.074036 465.114441,237.244446 465.115631,71.414848 
	C465.115631,69.748306 465.184326,68.080109 465.130768,66.415588 
	C465.037781,63.526310 466.290802,62.037296 469.277618,62.135948 
	C470.775482,62.185425 472.277008,62.115871 473.776855,62.115852 
	C575.774536,62.114391 677.772278,62.112175 779.769958,62.128857 
	C782.198792,62.129253 784.627686,62.342709 788.039246,62.502949 
	C786.662048,65.136078 785.815979,67.030937 784.734985,68.780624 
	C742.517212,137.113480 700.249695,205.415665 658.118286,273.801697 
	C655.817871,277.535583 653.279480,279.006897 648.898682,278.976349 
	C629.401550,278.840393 609.901489,278.964813 590.403625,279.133301 
	C567.247314,279.333405 544.092651,279.765228 520.936279,279.877350 
	C516.442749,279.899139 514.870117,281.297852 514.921387,285.915649 
	C515.433228,332.068176 515.725586,378.223114 516.151306,424.376709 
	C516.354126,446.366211 516.758606,468.353912 516.929016,490.343536 
	C516.947632,492.742310 516.640442,495.530731 515.434509,497.493347 
	C499.209991,523.898743 482.798981,550.189575 466.016235,576.714355 
	C465.598328,576.919861 465.267609,576.900024 465.267578,576.900024 
M513.902039,219.257507 
	C513.490479,223.847534 516.368591,224.280930 519.932800,224.276306 
	C555.899841,224.229645 591.867188,224.196564 627.833862,224.318146 
	C631.760254,224.331406 633.826782,222.611069 635.690125,219.468628 
	C655.136414,186.673035 674.686523,153.938995 694.178406,121.170372 
	C695.141357,119.551422 695.832764,117.770943 697.006287,115.324287 
	C694.134399,115.186745 692.192749,115.013016 690.251160,115.012520 
	C633.802734,114.998123 577.354248,114.997360 520.905823,115.005867 
	C513.948120,115.006920 513.896057,115.052368 513.893372,121.894150 
	C513.880554,154.031448 513.889282,186.168762 513.902039,219.257507 
z"/>
<path fill="#262626" opacity="1.000000" stroke="none" 
	d="
M114.922638,62.356117 
	C115.063461,62.629845 115.038322,63.034264 114.989883,63.742805 
	C114.896622,63.526894 114.826653,63.006851 114.922638,62.356117 
z"/>
<path fill="#1A1A1A" opacity="1.000000" stroke="none" 
	d="
M387.510437,376.753845 
	C387.618958,376.963196 387.470428,377.070801 387.133301,376.971924 
	C387.043549,376.911438 387.352142,376.798126 387.510437,376.753845 
z"/>
<path fill="#262626" opacity="1.000000" stroke="none" 
	d="
M465.319885,576.996948 
	C465.267609,576.900024 465.598328,576.919861 465.762848,576.935730 
	C465.927368,576.951599 465.675415,577.152527 465.675415,577.152527 
	C465.675415,577.152527 465.372131,577.093933 465.319885,576.996948 
z"/>
<path fill="#000000" opacity="1.000000" stroke="none" 
	d="
M513.896240,218.781784 
	C513.889282,186.168762 513.880554,154.031448 513.893372,121.894150 
	C513.896057,115.052368 513.948120,115.006920 520.905823,115.005867 
	C577.354248,114.997360 633.802734,114.998123 690.251160,115.012520 
	C692.192749,115.013016 694.134399,115.186745 697.006287,115.324287 
	C695.832764,117.770943 695.141357,119.551422 694.178406,121.170372 
	C674.686523,153.938995 655.136414,186.673035 635.690125,219.468628 
	C633.826782,222.611069 631.760254,224.331406 627.833862,224.318146 
	C591.867188,224.196564 555.899841,224.229645 519.932800,224.276306 
	C516.368591,224.280930 513.490479,223.847534 513.896240,218.781784 
z"/>
</svg>